<svg id="visual" viewBox="0 0 1450 540" width="1450" height="540" xmlns="http://www.w3.org/2000/svg" xmlns:xlink="http://www.w3.org/1999/xlink" version="1.1"><rect x="0" y="0" width="1450" height="540" fill="#140021"></rect><path d="M598 540L651 540L651 463L875 463L875 386L619 386L619 309L841 309L841 231L717 231L717 154L759 154L759 77L595 77L595 0L1450 0L1450 77L1450 77L1450 154L1450 154L1450 231L1450 231L1450 309L1450 309L1450 386L1450 386L1450 463L1450 463L1450 540L1450 540Z" fill="#9900ff"></path><path d="M863 540L918 540L918 463L952 463L952 386L833 386L833 309L965 309L965 231L889 231L889 154L849 154L849 77L815 77L815 0L1450 0L1450 77L1450 77L1450 154L1450 154L1450 231L1450 231L1450 309L1450 309L1450 386L1450 386L1450 463L1450 463L1450 540L1450 540Z" fill="#8200d9"></path><path d="M998 540L1050 540L1050 463L1075 463L1075 386L1016 386L1016 309L1155 309L1155 231L1120 231L1120 154L1005 154L1005 77L1164 77L1164 0L1450 0L1450 77L1450 77L1450 154L1450 154L1450 231L1450 231L1450 309L1450 309L1450 386L1450 386L1450 463L1450 463L1450 540L1450 540Z" fill="#6c00b4"></path><path d="M1331 540L1279 540L1279 463L1298 463L1298 386L1203 386L1203 309L1183 309L1183 231L1252 231L1252 154L1347 154L1347 77L1148 77L1148 0L1450 0L1450 77L1450 77L1450 154L1450 154L1450 231L1450 231L1450 309L1450 309L1450 386L1450 386L1450 463L1450 463L1450 540L1450 540Z" fill="#560090"></path></svg>