<!-- Generator: Adobe Illustrator 22.0.1, SVG Export Plug-In  -->
<svg version="1.1"
	 xmlns="http://www.w3.org/2000/svg" xmlns:xlink="http://www.w3.org/1999/xlink" xmlns:a="http://ns.adobe.com/AdobeSVGViewerExtensions/3.0/"
	 x="0px" y="0px" width="264.5px" height="226.7px" viewBox="0 0 264.5 226.7" style="enable-background:new 0 0 264.5 226.7;"
	 xml:space="preserve">
<defs>
</defs>
<g>
	<defs>
		<linearGradient spreadMethod="pad" id="gradient" x1="0%" y1="100%" x2="0%" y2="0%">
			<stop offset="0" style="stop-color:rgb(140, 208, 227);stop-opacity:1;" />
				<stop offset="0%" style="stop-color:rgb(140, 208, 227);stop-opacity:1;" />
				<stop offset="100%" style="stop-color:rgb(240, 140, 205);stop-opacity:1;" />
			</linearGradient>
		<path id="SVGID_1_" fill="url(#gradient)" d="M264.5,26.8c-9.7,4.6-20.2,7.6-31.2,9c11.2-7.1,19.8-18.3,23.9-31.7c-10.5,6.6-22.1,11.3-34.5,13.9
			C212.8,7,198.7,0,183.1,0c-35,0-60.8,34.5-52.9,70.3C85.2,67.9,45.2,45.1,18.4,10.5C4.2,36.2,11,69.8,35.2,86.9
			c-8.9-0.3-17.3-2.9-24.6-7.2C10,106.2,28.1,131,54.2,136.6c-7.6,2.2-16,2.7-24.5,1c6.9,22.7,26.9,39.3,50.7,39.7
			C57.5,196.2,28.8,204.6,0,201c24,16.2,52.5,25.7,83.2,25.7c100.8,0,157.7-89.7,154.2-170.2C248,48.4,257.2,38.3,264.5,26.8z"/>
	</defs>
	<use xlink:href="#SVGID_1_"  style="overflow:visible;"/>
	<clipPath id="SVGID_2_">
		<use xlink:href="#SVGID_1_"  style="overflow:visible;"/>
	</clipPath>
</g>
</svg>
