<svg version="1.1"
	 xmlns="http://www.w3.org/2000/svg" xmlns:xlink="http://www.w3.org/1999/xlink" xmlns:a="http://ns.adobe.com/AdobeSVGViewerExtensions/3.0/"
	 x="0px" y="0px" width="292.5px" height="292.5px" viewBox="0 0 292.5 292.5" style="enable-background:new 0 0 292.5 292.5;"
	 xml:space="preserve">
<defs>
<linearGradient spreadMethod="pad" id="gradient" x1="0%" y1="100%" x2="0%" y2="0%">
			<stop offset="0" style="stop-color:rgb(140, 208, 227);stop-opacity:1;" />
				<stop offset="0%" style="stop-color:rgb(140, 208, 227);stop-opacity:1;" />
				<stop offset="100%" style="stop-color:rgb(240, 140, 205);stop-opacity:1;" />
			</linearGradient>
</defs>
<path fill="url(#gradient)" d="M241.9,68.2c0,9.7-7.9,17.6-17.5,17.6c-9.7,0-17.5-7.9-17.5-17.6s7.9-17.5,17.5-17.5C234,50.6,241.9,58.5,241.9,68.2z
	 M146.2,195c-26.9,0-48.8-21.8-48.8-48.8s21.8-48.8,48.8-48.8s48.8,21.8,48.8,48.8S173.2,195,146.2,195z M146.2,71.2
	c-41.5,0-75.1,33.6-75.1,75.1c0,41.5,33.6,75.1,75.1,75.1c41.5,0,75.1-33.6,75.1-75.1C221.3,104.8,187.7,71.2,146.2,71.2z
	 M146.2,26.3c39,0,43.7,0.2,59.1,0.9c14.3,0.7,22,3,27.1,5.1c6.8,2.6,11.7,5.8,16.8,10.9c5.1,5.1,8.3,10,10.9,16.8
	c2,5.1,4.4,12.9,5,27.1c0.7,15.4,0.9,20.1,0.9,59.1s-0.2,43.7-0.9,59.1c-0.7,14.3-3.1,22-5.1,27.1c-2.7,6.8-5.8,11.7-11,16.8
	c-5.1,5.1-10,8.3-16.8,10.9c-5.1,2-13,4.4-27.2,5c-15.5,0.7-20.1,0.9-59.2,0.9c-39.1,0-43.7-0.2-59.2-0.9
	c-14.3-0.7-22.1-3.1-27.3-5.1c-6.9-2.7-11.7-5.8-16.8-11c-5.1-5.1-8.4-10-11-16.8c-2-5.1-4.4-13-5.1-27.2c-0.5-15.4-0.7-20.1-0.7-59
	c0-39,0.2-43.7,0.7-59.2c0.7-14.3,3.1-22.1,5.1-27.2c2.6-6.9,5.8-11.7,11-16.8c5.1-5.1,9.9-8.4,16.8-10.9c5.1-2,12.8-4.4,27.1-5.1
	c15.5-0.5,20.1-0.7,59.2-0.7L146.2,26.3z M146.2,0C106.5,0,101.6,0.2,86,0.9C70.4,1.6,59.8,4.1,50.5,7.7
	c-9.6,3.7-17.8,8.7-25.9,16.9c-8.1,8.1-13.2,16.3-16.9,25.9C4.1,59.8,1.6,70.4,0.9,86C0.1,101.6,0,106.5,0,146.2s0.2,44.7,0.9,60.3
	c0.7,15.6,3.2,26.2,6.8,35.5c3.7,9.6,8.7,17.8,16.9,25.9c8.1,8.1,16.3,13.2,25.9,16.9c9.3,3.6,19.9,6.1,35.5,6.8
	c15.6,0.7,20.6,0.9,60.3,0.9s44.7-0.2,60.3-0.9c15.6-0.7,26.2-3.2,35.5-6.8c9.6-3.7,17.8-8.8,25.9-16.9c8.1-8.1,13.2-16.3,16.9-25.9
	c3.6-9.3,6.1-19.9,6.8-35.5c0.7-15.6,0.9-20.6,0.9-60.3s-0.2-44.7-0.9-60.3c-0.7-15.6-3.2-26.2-6.8-35.5
	c-3.7-9.6-8.8-17.8-16.9-25.9c-8.1-8.1-16.3-13.2-25.9-16.9c-9.3-3.6-19.9-6.1-35.5-6.8C190.9,0.1,186,0,146.2,0z"/>
</svg>
